<svg width="39" height="39" viewBox="0 0 39 39" fill="none" xmlns="http://www.w3.org/2000/svg">
<path d="M32.6564 25.3588L25.481 22.1429L25.4627 22.1337C25.09 21.9741 24.6832 21.91 24.2794 21.9472C23.8756 21.9845 23.4875 22.1219 23.1502 22.347C23.1105 22.3732 23.0723 22.4017 23.0359 22.4323L19.3279 25.5934C16.9787 24.4524 14.5534 22.0454 13.4124 19.7267L16.5781 15.9623C16.6085 15.9242 16.6375 15.8861 16.6649 15.845C16.8849 15.5087 17.0184 15.1233 17.0535 14.7231C17.0886 14.3228 17.0242 13.92 16.866 13.5507C16.8654 13.5446 16.8654 13.5385 16.866 13.5324L13.6409 6.34329C13.4318 5.86076 13.0722 5.4588 12.6159 5.19741C12.1596 4.93603 11.6309 4.82923 11.1089 4.89297C9.04462 5.16461 7.14978 6.1784 5.77831 7.74499C4.40684 9.31159 3.65253 11.3238 3.65626 13.4059C3.65626 25.502 13.4977 35.3434 25.5938 35.3434C27.6759 35.3472 29.6881 34.5929 31.2547 33.2214C32.8213 31.8499 33.8351 29.9551 34.1067 27.8908C34.1705 27.3688 34.0637 26.8401 33.8023 26.3838C33.5409 25.9275 33.1389 25.5679 32.6564 25.3588ZM25.5938 32.9059C20.4238 32.9003 15.4672 30.844 11.8114 27.1883C8.15568 23.5326 6.09941 18.5759 6.09376 13.4059C6.08803 11.9183 6.624 10.4794 7.60157 9.35803C8.57913 8.23664 9.93146 7.50943 11.406 7.31219C11.4054 7.31827 11.4054 7.32439 11.406 7.33047L14.6052 14.4906L11.4563 18.2596C11.4243 18.2964 11.3953 18.3356 11.3694 18.3769C11.1402 18.7287 11.0057 19.1338 10.979 19.5528C10.9523 19.9718 11.0343 20.3907 11.2171 20.7687C12.5973 23.5916 15.4416 26.4146 18.295 27.7933C18.6758 27.9743 19.097 28.0535 19.5176 28.0231C19.9382 27.9926 20.3436 27.8536 20.6944 27.6196C20.7339 27.5932 20.7715 27.5642 20.8071 27.5328L24.5106 24.3747L31.6708 27.583C31.6708 27.583 31.6829 27.583 31.6875 27.583C31.4923 29.0594 30.7661 30.4141 29.6445 31.3938C28.523 32.3734 27.0829 32.911 25.5938 32.9059ZM20.7188 9.74969C20.7188 9.42646 20.8472 9.11647 21.0757 8.88791C21.3043 8.65935 21.6143 8.53094 21.9375 8.53094H31.6875C32.0107 8.53094 32.3207 8.65935 32.5493 8.88791C32.7779 9.11647 32.9063 9.42646 32.9063 9.74969C32.9063 10.0729 32.7779 10.3829 32.5493 10.6115C32.3207 10.84 32.0107 10.9684 31.6875 10.9684H21.9375C21.6143 10.9684 21.3043 10.84 21.0757 10.6115C20.8472 10.3829 20.7188 10.0729 20.7188 9.74969ZM20.7188 15.8434C20.7188 15.5202 20.8472 15.2102 21.0757 14.9817C21.3043 14.7531 21.6143 14.6247 21.9375 14.6247H31.6875C32.0107 14.6247 32.3207 14.7531 32.5493 14.9817C32.7779 15.2102 32.9063 15.5202 32.9063 15.8434C32.9063 16.1667 32.7779 16.4767 32.5493 16.7052C32.3207 16.9338 32.0107 17.0622 31.6875 17.0622H21.9375C21.6143 17.0622 21.3043 16.9338 21.0757 16.7052C20.8472 16.4767 20.7188 16.1667 20.7188 15.8434Z" fill="#164B49"/>
</svg>
